# This file uses centimeters as units for non-parametric coordinates.

mtllib board.mtl
g default
v -1.500000 -1.500000 0.050000
v 1.500000 -1.500000 0.050000
v -1.500000 1.500000 0.050000
v 1.500000 1.500000 0.050000
v 1.500000 1.500000 -0.050000
v -1.500000 1.500000 -0.050000
v 1.500000 -1.500000 -0.050000
v -1.500000 -1.500000 -0.050000
vt 0.000000 1.000000
vt 0.000000 0.000000
vt 0.033334 0.000000
vt 0.033334 1.000000
vt 0.100468 1.000000
vt 0.100468 0.000000
vt 0.133800 0.000000
vt 0.133800 1.000000
vt 0.033489 0.000000
vt 0.066823 0.000000
vt 0.066823 1.000000
vt 0.033489 1.000000
vt 0.066978 0.000000
vt 0.100312 0.000000
vt 0.100312 1.000000
vt 0.066978 1.000000
vn 0.000000 1.000000 0.000000
vn 0.000000 1.000000 0.000000
vn 0.000000 1.000000 0.000000
vn 0.000000 1.000000 0.000000
vn 0.000000 -1.000000 0.000000
vn 0.000000 -1.000000 0.000000
vn 0.000000 -1.000000 0.000000
vn 0.000000 -1.000000 0.000000
vn 1.000000 0.000000 0.000000
vn 1.000000 0.000000 0.000000
vn 1.000000 0.000000 0.000000
vn 1.000000 0.000000 0.000000
vn -1.000000 0.000000 0.000000
vn -1.000000 0.000000 0.000000
vn -1.000000 0.000000 0.000000
vn -1.000000 0.000000 0.000000
s off
g polySurface2 board:pCube3
usemtl board:lambert2SG
f 3/1/1 4/2/2 5/3/3 6/4/4
f 8/5/5 7/6/6 2/7/7 1/8/8
f 2/9/9 7/10/10 5/11/11 4/12/12
f 8/13/13 1/14/14 3/15/15 6/16/16
g default
v -1.500000 -1.500000 0.050000
v 1.500000 -1.500000 0.050000
v 1.500000 1.500000 0.050000
v -1.500000 1.500000 0.050000
vt 0.000000 0.000000
vt 1.000000 0.000000
vt 1.000000 1.000000
vt 0.000000 1.000000
vn 0.000000 0.000000 1.000000
vn 0.000000 0.000000 1.000000
vn 0.000000 0.000000 1.000000
vn 0.000000 0.000000 1.000000
s off
g board:pCube3 polySurface1
usemtl board:lambert2SG
f 9/17/17 10/18/18 11/19/19 12/20/20
g default
v -1.500000 1.500000 -0.050000
v 1.500000 1.500000 -0.050000
v -1.500000 -1.500000 -0.050000
v 1.500000 -1.500000 -0.050000
vt 1.000000 1.000000
vt 0.000000 1.000000
vt 0.000000 0.000000
vt 1.000000 0.000000
vn 0.000000 0.000000 -1.000000
vn 0.000000 0.000000 -1.000000
vn 0.000000 0.000000 -1.000000
vn 0.000000 0.000000 -1.000000
s off
g board:pCube3 polySurface3
usemtl board:lambert2SG
f 13/21/21 14/22/22 16/23/23 15/24/24
